<?xml version="1.0" encoding="UTF-8" standalone="no"?>
<svg
   xmlns:dc="http://purl.org/dc/elements/1.1/"
   xmlns:cc="http://creativecommons.org/ns#"
   xmlns:rdf="http://www.w3.org/1999/02/22-rdf-syntax-ns#"
   xmlns:svg="http://www.w3.org/2000/svg"
   xmlns="http://www.w3.org/2000/svg"
   xmlns:sodipodi="http://sodipodi.sourceforge.net/DTD/sodipodi-0.dtd"
   xmlns:inkscape="http://www.inkscape.org/namespaces/inkscape"
   width="115.47993mm"
   height="84.835236mm"
   viewBox="0 0 115.47994 84.835236"
   version="1.1"
   id="svg8"
   sodipodi:docname="ribotools-logo.svg"
   inkscape:version="1.0.2 (e86c870879, 2021-01-15)">
  <defs
     id="defs2">
    <inkscape:path-effect
       effect="bspline"
       id="path-effect1076"
       is_visible="true"
       lpeversion="1"
       weight="33.333333"
       steps="2"
       helper_size="0"
       apply_no_weight="true"
       apply_with_weight="true"
       only_selected="false" />
    <inkscape:path-effect
       effect="bspline"
       id="path-effect1064"
       is_visible="true"
       lpeversion="1"
       weight="33.333333"
       steps="2"
       helper_size="0"
       apply_no_weight="true"
       apply_with_weight="true"
       only_selected="false" />
    <inkscape:path-effect
       effect="bspline"
       id="path-effect1007"
       is_visible="true"
       lpeversion="1"
       weight="33.333333"
       steps="2"
       helper_size="0"
       apply_no_weight="true"
       apply_with_weight="true"
       only_selected="false" />
    <inkscape:path-effect
       effect="bspline"
       id="path-effect971"
       is_visible="true"
       lpeversion="1"
       weight="33.333333"
       steps="2"
       helper_size="0"
       apply_no_weight="true"
       apply_with_weight="true"
       only_selected="false" />
    <inkscape:path-effect
       effect="bspline"
       id="path-effect967"
       is_visible="true"
       lpeversion="1"
       weight="33.333333"
       steps="2"
       helper_size="0"
       apply_no_weight="true"
       apply_with_weight="true"
       only_selected="false" />
    <inkscape:path-effect
       effect="bspline"
       id="path-effect959"
       is_visible="true"
       lpeversion="1"
       weight="33.333333"
       steps="2"
       helper_size="0"
       apply_no_weight="true"
       apply_with_weight="true"
       only_selected="false" />
    <inkscape:path-effect
       effect="bspline"
       id="path-effect955"
       is_visible="true"
       lpeversion="1"
       weight="33.333333"
       steps="2"
       helper_size="0"
       apply_no_weight="true"
       apply_with_weight="true"
       only_selected="false" />
    <inkscape:path-effect
       effect="bspline"
       id="path-effect951"
       is_visible="true"
       lpeversion="1"
       weight="33.333333"
       steps="2"
       helper_size="0"
       apply_no_weight="true"
       apply_with_weight="true"
       only_selected="false" />
    <inkscape:path-effect
       effect="bspline"
       id="path-effect867"
       is_visible="true"
       lpeversion="1"
       weight="33.333333"
       steps="2"
       helper_size="0"
       apply_no_weight="true"
       apply_with_weight="true"
       only_selected="false" />
    <inkscape:path-effect
       effect="bspline"
       id="path-effect863"
       is_visible="true"
       lpeversion="1"
       weight="33.333333"
       steps="2"
       helper_size="0"
       apply_no_weight="true"
       apply_with_weight="true"
       only_selected="false" />
    <inkscape:path-effect
       effect="bspline"
       id="path-effect859"
       is_visible="true"
       lpeversion="1"
       weight="33.333333"
       steps="2"
       helper_size="0"
       apply_no_weight="true"
       apply_with_weight="true"
       only_selected="false" />
    <clipPath
       clipPathUnits="userSpaceOnUse"
       id="clipPath939">
      <rect
         style="fill:#ffffff;fill-opacity:0;stroke:#000000;stroke-width:1.5;stroke-miterlimit:4;stroke-dasharray:none;stroke-opacity:1"
         id="rect941"
         width="224.93715"
         height="187.1188"
         x="259.31265"
         y="12.652052"
         rx="2.0000012"
         ry="2.0000012" />
    </clipPath>
  </defs>
  <sodipodi:namedview
     id="base"
     pagecolor="#ffffff"
     bordercolor="#666666"
     borderopacity="1.0"
     inkscape:pageopacity="0.0"
     inkscape:pageshadow="2"
     inkscape:zoom="1.3699321"
     inkscape:cx="129.20434"
     inkscape:cy="180.79214"
     inkscape:document-units="mm"
     inkscape:current-layer="g1173"
     inkscape:document-rotation="0"
     showgrid="false"
     inkscape:window-width="1920"
     inkscape:window-height="1015"
     inkscape:window-x="0"
     inkscape:window-y="0"
     inkscape:window-maximized="1"
     fit-margin-top="0"
     fit-margin-left="0"
     fit-margin-right="0"
     fit-margin-bottom="0" />
  <metadata
     id="metadata5">
    <rdf:RDF>
      <cc:Work
         rdf:about="">
        <dc:format>image/svg+xml</dc:format>
        <dc:type
           rdf:resource="http://purl.org/dc/dcmitype/StillImage" />
        <dc:title></dc:title>
      </cc:Work>
    </rdf:RDF>
  </metadata>
  <g
     inkscape:label="Layer 1"
     inkscape:groupmode="layer"
     id="layer1"
     transform="translate(-25.887173,-85.838336)">
    <g
       id="g1173">
      <path
         style="fill:none;stroke:#7d7d7d;stroke-width:0.5;stroke-linecap:butt;stroke-linejoin:miter;stroke-miterlimit:4;stroke-dasharray:none;stroke-opacity:1"
         d="m 67.641919,138.3752 c -2.036358,-8.27138 -4.072749,-16.54289 -5.784484,-23.10716 -1.711735,-6.56426 -3.098787,-11.4212 -4.004176,-14.98283 -0.905388,-3.561639 -1.329053,-5.827768 -1.423264,-7.530591 -0.09421,-1.702824 0.141046,-2.842183 0.479349,-3.72864 0.338303,-0.886458 0.862886,-1.63947 1.302141,-2.169651 0.439255,-0.530182 0.918786,-0.975265 1.378347,-0.681836 0.459561,0.293428 0.941168,1.286169 0.847021,2.131477 -0.09415,0.845308 -0.764051,1.543331 -0.42547,1.969231 0.33858,0.4259 1.68547,0.579556 1.996739,1.01935 0.311268,0.439794 -0.412984,1.165811 -0.584781,2.017196 -0.171797,0.851386 0.203332,1.813666 -0.01037,2.534232 -0.213702,0.720565 -1.019078,1.192422 -0.872318,1.719113 0.14676,0.526691 1.245575,1.10803 1.721764,1.668198 0.476189,0.560168 0.329898,1.099251 0.542429,1.446501 0.212531,0.34726 0.81612,0.51144 0.929848,0.89891 0.113727,0.38746 -0.281896,1.06403 -0.24434,1.58808 0.03756,0.52405 0.490241,0.92607 0.619719,1.21858 0.129478,0.29251 -0.232869,0.63519 0.113495,1.1318 0.346364,0.4966 1.317012,1.22666 1.451106,1.80643 0.134094,0.57976 -0.568326,1.00938 -0.528992,1.5477 0.03933,0.53831 0.820383,1.1851 0.826442,1.95612 0.0061,0.77101 -0.762777,1.66638 -0.610049,2.20582 0.152729,0.53945 1.22686,0.72286 1.733237,1.21899 0.506377,0.49613 0.445211,1.30502 0.38405,2.11385"
         id="path953"
         inkscape:path-effect="#path-effect955"
         inkscape:original-d="m 67.641919,138.3752 c -2.036189,-8.27142 -4.072581,-16.54293 -6.109143,-24.81441 -1.386918,-4.85706 -2.77395,-9.714 -4.161239,-14.571087 -0.42349,-2.266165 -0.84717,-4.532291 -1.271018,-6.798506 0.235454,-1.139363 0.470709,-2.278722 0.705785,-3.418151 0.417017,-0.650471 0.966078,-1.386431 1.448814,-2.079698 0.400017,-0.362467 0.875262,-0.812167 1.312601,-1.218308 0.481794,0.992822 0.963462,1.985533 1.444841,2.978267 -0.669734,0.698084 -1.339635,1.396111 -2.009749,2.094107 1.347151,0.153694 2.69404,0.30736 4.040766,0.460979 -0.72407,0.726068 -1.448322,1.452085 -2.172773,2.178067 0.346119,0.990168 0.756047,1.938883 1.133746,2.90828 -0.805256,0.471848 -1.610602,0.943755 -2.41616,1.415592 1.099045,0.581407 2.197861,1.162744 3.296505,1.744051 -0.146096,0.539127 -0.292388,1.078207 -0.438876,1.617247 0.566441,0.17349 1.174947,0.3196 1.762143,0.47933 -0.34408,0.62436 -0.755206,1.29186 -1.133089,1.93772 0.452898,0.40208 0.90558,0.8041 1.358089,1.20608 -0.178675,0.1989 -0.555849,0.52591 -0.834054,0.7888 0.970874,0.73013 1.941526,1.46019 2.911989,2.19023 -0.702289,0.42963 -1.404677,0.8593 -2.107306,1.28888 0.781283,0.64686 1.56233,1.29365 2.343205,1.94041 -0.768675,0.89546 -1.537522,1.79082 -2.306549,2.68615 1.074349,0.18349 2.148476,0.36692 3.222406,0.55023 -0.06097,0.8089 -0.122138,1.61779 -0.183492,2.42661" />
      <g
         id="g1272">
        <path
           style="fill:none;stroke:#7d7d7d;stroke-width:0.5;stroke-linecap:butt;stroke-linejoin:miter;stroke-miterlimit:4;stroke-dasharray:none;stroke-opacity:1"
           d="m 66.186976,140.34793 c -4.001436,-0.73771 -8.002999,-1.47545 -10.609491,-2.0264 -2.606491,-0.55095 -3.8179,-0.91512 -4.504163,-1.20337 -0.686263,-0.28825 -0.847269,-0.50057 -1.008176,-0.76901 -0.160908,-0.26843 -0.321679,-0.59295 -0.399766,-0.88939 -0.07809,-0.29643 -0.07347,-0.56471 0.357841,-1.1627 0.431314,-0.59799 1.289233,-1.52559 3.82546,-3.08072 2.536226,-1.55513 6.763934,-3.74465 8.809826,-5.20587 2.045892,-1.46122 1.929973,-2.12202 -0.12804,-1.49359 -2.058012,0.62844 -6.101383,2.60833 -9.700229,4.06511 -3.598847,1.45677 -6.821309,2.41547 -9.2624,2.57841 -2.441092,0.16295 -4.122344,-0.46348 -5.785508,-1.05402 -1.663165,-0.59053 -3.308145,-1.14514 -4.720214,-1.36484 -1.412069,-0.2197 -2.591187,-0.10444 -3.374427,0.0588 -0.78324,0.16326 -1.170533,0.37454 -1.703939,0.54657 -0.533407,0.17204 -1.212911,0.30477 -1.608477,0.4709 -0.395565,0.16613 -0.525018,0.3978 1.441849,1.28598 1.966867,0.88817 6.020825,2.4487 7.69714,3.37364 1.676314,0.92493 0.930238,1.23277 -1.039782,2.09906 -1.97002,0.86629 -5.186176,2.30018 -6.465691,3.25891 -1.279514,0.95873 -0.622295,1.44214 0.326792,1.74254 0.949086,0.30039 2.1899,0.4178 3.300675,0.1946 1.110775,-0.2232 2.091487,-0.78692 4.335435,-1.48644 2.243949,-0.69952 5.750962,-1.53484 8.13387,-1.76992 2.382908,-0.23508 3.6416,0.13 5.305049,0.63273 1.663449,0.50273 3.731596,1.14308 5.968003,1.79552 2.236406,0.65245 4.771392,1.35301 7.241094,2.03553"
           id="path949"
           inkscape:path-effect="#path-effect951"
           inkscape:original-d="m 66.186976,140.34793 c -4.001427,-0.73776 -8.002988,-1.47551 -12.004706,-2.21321 -1.211272,-0.36415 -2.422676,-0.72834 -3.634241,-1.09253 -0.160941,-0.2123 -0.321846,-0.4247 -0.483045,-0.63701 -0.160553,-0.32456 -0.321375,-0.64905 -0.482305,-0.97353 0.0047,-0.26832 0.0094,-0.5366 0.01384,-0.80488 0.858118,-0.92761 1.716013,-1.85523 2.57377,-2.78281 4.208128,-2.19528 8.442359,-4.37221 12.663292,-6.55831 -0.140376,-0.73444 -0.244899,-1.39724 -0.367648,-2.09579 -3.990045,1.96247 -8.036828,3.93539 -12.055477,5.90312 -3.184266,0.9283 -6.401526,1.90448 -9.602505,2.85678 -1.681179,-0.62648 -3.362435,-1.2529 -5.04387,-1.87933 -1.64489,-0.55466 -3.289861,-1.10929 -4.935017,-1.66384 -1.179035,0.11507 -2.358163,0.23023 -3.537429,0.34579 -0.387167,0.21126 -0.774441,0.42258 -1.161912,0.63387 -0.679321,0.13301 -1.358932,0.2652 -2.038548,0.39821 -0.109869,0.20038 -0.240813,0.43122 -0.361452,0.64687 4.054294,1.56057 8.108254,3.12109 12.162154,4.68168 -0.707298,0.27483 -1.447365,0.59723 -2.171276,0.89589 -3.216131,1.43391 -6.432284,2.86781 -9.648642,4.30176 0.657376,0.4834 1.314582,0.96683 1.971694,1.45026 1.241018,0.11738 2.481831,0.23479 3.72253,0.35222 0.980902,-0.5637 1.961583,-1.12747 2.942142,-1.69115 3.507314,-0.8354 7.014324,-1.67074 10.521257,-2.50603 1.2589,0.3651 2.5176,0.73016 3.776158,1.09529 2.068347,0.64031 4.13649,1.28067 6.204508,1.92106 2.411035,0.64191 4.939779,1.36506 7.409459,2.04766" />
        <path
           style="fill:none;stroke:#7d7d7d;stroke-width:0.5;stroke-linecap:butt;stroke-linejoin:miter;stroke-miterlimit:4;stroke-dasharray:none;stroke-opacity:1"
           d="m 88.056517,140.83899 c 8.95897,5.9727 17.917733,11.94526 22.315703,14.51637 4.39798,2.57112 4.22312,1.6786 3.79691,0.5588 -0.4262,-1.11979 -1.10987,-2.49791 -2.56493,-3.9268 -1.45507,-1.4289 -3.68155,-2.90846 -6.79492,-4.92326 -3.11337,-2.01479 -7.158056,-4.59313 -11.180683,-7.15741"
           id="path957"
           inkscape:original-d="m 88.056517,140.83899 c 8.95895,5.97273 17.917713,11.94528 26.876343,17.91772 -0.16389,-0.82999 -0.33698,-1.72286 -0.50633,-2.58437 -0.68352,-1.37801 -1.36718,-2.75613 -2.05103,-4.13439 -2.22637,-1.47948 -4.45286,-2.95904 -6.67957,-4.43877 -3.9881,-2.56857 -8.044713,-5.1282 -12.067333,-7.69249"
           inkscape:path-effect="#path-effect959" />
        <path
           style="fill:none;stroke:#7d7d7d;stroke-width:0.5;stroke-linecap:butt;stroke-linejoin:miter;stroke-miterlimit:4;stroke-dasharray:none;stroke-opacity:1"
           d="m 85.444549,139.82721 c 1.702686,5.43352 3.405342,10.86696 4.166364,13.9947 0.761022,3.12774 0.580475,3.94968 0.607214,4.77716 0.02674,0.82748 0.260701,1.6605 1.192282,2.10756 0.931581,0.44707 2.560862,0.50825 3.345926,1.09838 0.785064,0.59013 0.653071,3.08067 -0.401231,3.43126 -1.054302,0.3506 -3.067158,-0.75275 -4.395411,-1.89666 -1.328252,-1.1439 -1.971908,-2.32835 -2.267557,-3.64078 -0.295648,-1.31242 -0.243205,-2.75398 -0.356439,-4.25815 -0.113233,-1.50417 -0.39824,-3.10572 -0.983258,-4.75979 -0.585018,-1.65408 -1.473063,-3.37768 -2.097438,-4.65271 -0.624375,-1.27503 -1.008168,-2.15441 -1.380432,-3.00737"
           id="path965"
           inkscape:path-effect="#path-effect967"
           inkscape:original-d="m 85.444549,139.82721 c 1.70254,5.43357 3.4052,10.867 5.107975,16.30031 -0.180677,0.82211 -0.361227,1.64405 -0.541657,2.46589 0.23386,0.83318 0.467807,1.6662 0.701907,2.49911 1.629211,0.0613 3.258492,0.12249 4.887933,0.18354 -0.797437,1.07996 -0.19142,3.60961 -0.28694,5.41422 -2.013048,-1.10326 -4.025906,-2.20661 -6.038664,-3.31011 -0.643814,-1.18438 -1.287474,-2.36883 -1.931014,-3.55344 0.0363,-1.44091 0.10472,-2.88188 0.15727,-4.32301 -0.28209,-1.56664 -0.56405,-3.16873 -0.84588,-4.75329 -0.88822,-1.72354 -1.77626,-3.44714 -2.66419,-5.1709 -0.37237,-0.82127 -0.74461,-1.70569 -1.11672,-2.55872" />
        <path
           style="fill:none;stroke:#7d7d7d;stroke-width:0.5;stroke-linecap:butt;stroke-linejoin:miter;stroke-miterlimit:4;stroke-dasharray:none;stroke-opacity:1"
           d="m 62.955238,119.80249 c -5.327311,-2.06818 -10.654941,-4.13649 -15.117556,-5.89139 -4.462616,-1.7549 -8.060073,-3.19633 -11.215512,-4.4132 -3.155439,-1.21686 -5.849033,-2.20188 -7.084243,-1.80966 -1.235209,0.39221 -1.001887,2.16502 -0.373309,3.61189 0.628577,1.44688 1.652152,2.56775 3.460035,3.96496 1.807883,1.3972 4.3999,3.07074 7.258009,4.64459 2.858109,1.57384 6.021971,3.06675 8.560468,4.24795 2.538498,1.18119 4.471421,2.06002 6.404063,2.93872"
           id="path969"
           inkscape:original-d="m 62.955238,119.80249 c -5.327366,-2.06804 -10.654995,-4.13635 -15.982889,-6.20492 -3.597338,-1.44123 -7.194798,-2.88266 -10.792594,-4.3244 -2.703259,-1.01883 -5.406673,-1.977 -8.110408,-2.9659 0.233595,1.77315 0.466918,3.54596 0.699982,5.31855 1.023876,1.12118 2.047451,2.24205 3.07078,3.36267 2.592385,1.67387 5.184402,3.34741 7.776207,5.02072 3.144327,1.4322 6.288262,2.96734 9.431997,4.45061 1.933262,0.87912 3.866184,1.75795 5.79888,2.63653"
           inkscape:path-effect="#path-effect971" />
        <ellipse
           style="fill:#ffffff;fill-opacity:0;stroke:#000000;stroke-width:1.25;stroke-miterlimit:4;stroke-dasharray:none;stroke-opacity:1"
           id="path833"
           cx="99.329559"
           cy="133.00551"
           rx="11.722363"
           ry="11.228456"
           transform="rotate(10.532919)" />
        <ellipse
           style="fill:#ffffff;fill-opacity:0;stroke:#000000;stroke-width:1.25;stroke-miterlimit:4;stroke-dasharray:none;stroke-opacity:1"
           id="ellipse835"
           cx="107.18858"
           cy="104.76189"
           rx="20.318102"
           ry="17.566929"
           transform="rotate(10.532919)" />
        <path
           style="fill:none;stroke:#000000;stroke-width:1.25;stroke-linecap:butt;stroke-linejoin:miter;stroke-miterlimit:4;stroke-dasharray:none;stroke-opacity:1"
           d="m 92.537998,105.52628 c 0.414427,-1.51732 0.866356,-3.17194 2.021091,-5.14025 1.154735,-1.968308 3.030912,-4.318583 4.821163,-5.732608 1.790248,-1.414025 3.494278,-1.891613 5.198198,-2.369169"
           id="path861"
           inkscape:original-d="m 92.537998,105.52628 c 0.39519,-1.52257 0.866633,-3.17186 1.299631,-4.75826 1.87647,-2.350078 3.752649,-4.700352 5.628655,-7.050982 1.704316,-0.477299 3.408346,-0.954882 5.112166,-1.432785"
           inkscape:path-effect="#path-effect863" />
        <ellipse
           style="fill:#ff0000;fill-opacity:1;stroke:#000000;stroke-width:0;stroke-miterlimit:4;stroke-dasharray:none;stroke-opacity:1"
           id="ellipse869"
           cx="122.08985"
           cy="70.638245"
           rx="3.3094847"
           ry="3.1700439"
           transform="rotate(10.532919)" />
        <rect
           style="fill:#ffffff;fill-opacity:0;stroke:#000000;stroke-width:0.5;stroke-miterlimit:4;stroke-dasharray:none;stroke-opacity:1"
           id="rect973"
           width="4.3584681"
           height="14.951236"
           x="120.43157"
           y="80.418976"
           rx="1.4816395"
           ry="1.4816395"
           transform="rotate(23.607702)" />
        <rect
           style="fill:#ffffff;fill-opacity:0;stroke:#000000;stroke-width:0.5;stroke-miterlimit:4;stroke-dasharray:none;stroke-opacity:1"
           id="rect975"
           width="4.3584681"
           height="14.951236"
           x="124.8075"
           y="80.418976"
           rx="1.4816395"
           ry="1.4816395"
           transform="rotate(23.607702)" />
        <rect
           style="fill:#ffffff;fill-opacity:0;stroke:#000000;stroke-width:0.5;stroke-miterlimit:4;stroke-dasharray:none;stroke-opacity:1"
           id="rect977"
           width="4.3584681"
           height="14.951236"
           x="129.18344"
           y="80.418976"
           rx="1.4816395"
           ry="1.4816395"
           transform="rotate(23.607702)" />
        <path
           style="fill:none;stroke:#000000;stroke-width:0.75;stroke-linecap:butt;stroke-linejoin:miter;stroke-miterlimit:4;stroke-dasharray:none;stroke-opacity:1"
           d="m 30.885683,136.74384 c 5.31476,-3.32958 10.629458,-6.65913 14.466026,-8.91621 3.836568,-2.25708 6.194838,-3.44163 8.796334,-3.74362 2.601496,-0.30199 5.445761,0.2785 7.523635,1.18399 2.077874,0.90549 3.389279,2.13573 4.044859,2.75074 0.655579,0.615 5.614476,5.5717 6.287385,6.36434 0.672909,0.79265 2.030515,2.39182 4.3869,3.62131 2.356385,1.22949 5.717363,2.09655 9.492004,2.39329 3.774642,0.29673 7.962783,0.0232 11.103158,0.0224 3.140376,-8.3e-4 5.232766,0.27097 7.961766,1.25479 2.729,0.98382 6.09442,2.67948 8.09848,3.90333 2.00406,1.22385 2.64675,1.97571 4.05163,3.57926 1.40488,1.60355 3.57186,4.05869 5.69642,6.38402 2.12455,2.32533 4.20654,4.52073 6.17892,5.56206 1.97237,1.04133 3.83501,0.92884 5.45419,0.055 1.61917,-0.8738 2.99505,-2.50891 3.65669,-3.90466 0.66163,-1.39576 0.60896,-2.55232 -0.16979,-3.42677 -0.77876,-0.87446 -2.28386,-1.46659 -3.54527,-1.47455 -1.2614,-0.008 -2.27885,0.5684 -2.8433,1.31157 -0.56445,0.74317 -0.67575,1.6528 -0.36728,3.44514 0.30846,1.79234 1.03656,4.46716 2.60877,6.77151 1.57222,2.30435 3.98825,4.23818 5.38161,5.24762 1.39337,1.00944 1.76398,1.0946 2.1343,1.1797"
           id="path1005"
           inkscape:path-effect="#path-effect1007"
           inkscape:original-d="m 30.885683,136.74384 c 5.314955,-3.32927 10.62965,-6.65882 15.944078,-9.98862 2.358677,-1.18435 4.716945,-2.3689 7.075092,-3.55378 2.844645,0.58078 5.68891,1.16127 8.53297,1.74151 1.311722,1.23055 2.623127,2.46079 3.934293,3.69079 l 4.958897,4.9567 c 1.337462,1.59238 2.703446,3.18444 4.054772,4.77626 3.361375,0.86736 6.722351,1.73443 10.08313,2.60124 4.188572,-0.27324 8.376712,-0.54675 12.564671,-0.82052 2.092744,0.27207 4.185134,0.54386 6.277294,0.8154 3.36582,1.69599 6.73124,3.39164 10.09646,5.08707 0.64297,0.75215 1.28566,1.50401 1.92809,2.25562 2.16733,2.4555 4.33431,4.91064 6.50107,7.36556 2.08234,2.19574 4.16433,4.39114 6.2461,6.58631 1.86299,-0.11223 3.72563,-0.22471 5.58805,-0.33746 1.3762,-1.6349 2.75208,-3.27001 4.12772,-4.90541 -0.0524,-1.15636 -0.10507,-2.31292 -0.15801,-3.4698 -1.50488,-0.59188 -3.00998,-1.18401 -4.51537,-1.77641 -1.0172,0.57664 -2.03464,1.15301 -3.05238,1.72914 -0.11105,0.90994 -0.22235,1.81957 -0.33392,2.72896 0.72839,2.6752 1.45648,5.35002 2.18433,8.02463 2.41639,1.93417 4.83242,3.868 7.24823,5.80161 0.3709,0.0854 0.74151,0.1706 1.11187,0.2555"
           sodipodi:nodetypes="ccccccccccccccccccccccc" />
        <text
           xml:space="preserve"
           style="font-style:normal;font-weight:normal;font-size:10.5833px;line-height:1.25;font-family:sans-serif;letter-spacing:0px;word-spacing:0px;fill:#000000;fill-opacity:1;stroke:none;stroke-width:0.264583"
           id="text1011"
           y="87.824249"
           x="75.343498"
           transform="rotate(21.761596)"><tspan
             sodipodi:role="line"
             id="tspan1009"
             x="75.343498"
             y="87.824249"
             style="font-style:normal;font-variant:normal;font-weight:normal;font-stretch:normal;font-size:8.81944px;font-family:'DejaVu Sans Mono';-inkscape-font-specification:'DejaVu Sans Mono, Normal';font-variant-ligatures:normal;font-variant-caps:normal;font-variant-numeric:normal;font-variant-east-asian:normal;stroke-width:0.264583">Ribo</tspan></text>
        <path
           style="fill:none;stroke:#000000;stroke-width:0;stroke-linecap:butt;stroke-linejoin:miter;stroke-miterlimit:4;stroke-dasharray:none;stroke-opacity:1"
           d="m 112.04584,156.78632 c -6.78505,-4.49113 -13.570381,-8.98245 -20.356036,-13.47398"
           id="path1074"
           inkscape:path-effect="#path-effect1076"
           inkscape:original-d="m 112.04584,156.78632 c -6.78509,-4.49106 -13.57042,-8.98239 -20.356036,-13.47398" />
        <text
           xml:space="preserve"
           style="font-style:normal;font-variant:normal;font-weight:normal;font-stretch:normal;font-size:8.81944px;line-height:1.25;font-family:'DejaVu Sans Mono';-inkscape-font-specification:'DejaVu Sans Mono, Normal';font-variant-ligatures:normal;font-variant-caps:normal;font-variant-numeric:normal;font-variant-east-asian:normal;letter-spacing:0px;word-spacing:0px;fill:#000000;fill-opacity:1;stroke:none;stroke-width:0.264583"
           id="text1249"
           x="155.02628"
           y="-71.270477"
           transform="matrix(0.84132277,0.54053306,0.54053306,-0.84132277,0,0)"><tspan
             id="tspan1247"
             style="font-style:normal;font-variant:normal;font-weight:normal;font-stretch:normal;font-size:8.81944px;font-family:'DejaVu Sans Mono';-inkscape-font-specification:'DejaVu Sans Mono, Normal';font-variant-ligatures:normal;font-variant-caps:normal;font-variant-numeric:normal;font-variant-east-asian:normal;stroke-width:0.264583">Tools</tspan></text>
      </g>
    </g>
  </g>
</svg>
